<?xml version="1.0" ?><svg id="Layer_1" style="enable-background:new 0 0 74 74;" version="1.1" viewBox="0 0 74 74" xml:space="preserve" xmlns="http://www.w3.org/2000/svg" xmlns:xlink="http://www.w3.org/1999/xlink"><style type="text/css">
	.st0{fill:#2B3033;}
</style><path class="st0" d="M65.8,13.3c-4,0-7.2,3.2-7.2,7.2c0,1.8,0.7,3.5,1.8,4.8L48.6,43.8c-0.6-0.2-1.3-0.3-2-0.3c-1.5,0-3,0.5-4.2,1.3  l-8.3-6.7c0.4-0.9,0.6-1.8,0.6-2.8c0-4-3.2-7.2-7.2-7.2s-7.2,3.2-7.2,7.2c0,1.2,0.3,2.3,0.8,3.3l-9.1,8.5c-1.1-0.6-2.3-1-3.7-1  c-4,0-7.2,3.2-7.2,7.2s3.2,7.2,7.2,7.2c4,0,7.2-3.2,7.2-7.2c0-1.2-0.3-2.3-0.8-3.3l9.1-8.5c1.1,0.6,2.3,1,3.7,1c1.5,0,3-0.5,4.2-1.3  l8.3,6.7c-0.4,0.9-0.6,1.8-0.6,2.8c0,4,3.2,7.2,7.2,7.2c4,0,7.2-3.2,7.2-7.2c0-1.8-0.7-3.5-1.8-4.8l11.7-18.5c0.6,0.2,1.3,0.3,2,0.3  c4,0,7.2-3.2,7.2-7.2S69.8,13.3,65.8,13.3z M8.2,56.7c-1.8,0-3.2-1.5-3.2-3.2s1.5-3.2,3.2-3.2s3.2,1.5,3.2,3.2S10,56.7,8.2,56.7z   M27.4,38.6c-1.8,0-3.2-1.5-3.2-3.2s1.5-3.2,3.2-3.2s3.2,1.5,3.2,3.2S29.2,38.6,27.4,38.6z M46.6,54c-1.8,0-3.2-1.5-3.2-3.2  s1.5-3.2,3.2-3.2s3.2,1.5,3.2,3.2S48.4,54,46.6,54z M65.8,23.8c-1.8,0-3.2-1.5-3.2-3.2s1.5-3.2,3.2-3.2s3.2,1.5,3.2,3.2  S67.5,23.8,65.8,23.8z"/></svg>